# xmcd
#
# Track frame offsets: 
#        150
#        11512
#        21654
#        33849
#        46982
#        58358
#        69028
#        79195
#        88969
#        104889
#        115899
#        124673
#        142823
#        154182
#        171526
#        187869
#        198584
#        208510
#        219165
#        232523
#
# Disc length: 3279 seconds
#
# Revision: 0
# Processed by: cddbd v1.5.1PL0 Copyright (c) Steve Scherf et al.
# Submitted via: ExactAudioCopy v0.90b4
#
DISCID=140ccd14
DTITLE=John Lee Hooker - Mr Boogie Man
DYEAR=2002
DGENRE=Blues
TTITLE0=Boom Boom
TTITLE1=Dimples
TTITLE2=I'm In The Mood
TTITLE3=I'm So Excited
TTITLE4=Hard Hearted Woman
TTITLE5=Want Ad Blues
TTITLE6=I Wanna Walk
TTITLE7=Onions
TTITLE8=Thelma
TTITLE9=Send Me Your Pillow
TTITLE10=Lost A Good Girl
TTITLE11=House Rent Boogie
TTITLE12=What Do You Say
TTITLE13=Blues Before Sunrise
TTITLE14=Process
TTITLE15=Let's Make It
TTITLE16=I'm Leaving Baby
TTITLE17=She's Mine (Keep Your Hands To Youself)
TTITLE18=Baby Lee
TTITLE19=I'm Goin' Upstairs
EXTD=
EXTT0=
EXTT1=
EXTT2=
EXTT3=
EXTT4=
EXTT5=
EXTT6=
EXTT7=
EXTT8=
EXTT9=
EXTT10=
EXTT11=
EXTT12=
EXTT13=
EXTT14=
EXTT15=
EXTT16=
EXTT17=
EXTT18=
EXTT19=
PLAYORDER=
